<svg width="30" height="30" viewBox="0 0 30 30" fill="none" xmlns="http://www.w3.org/2000/svg">
<g id="airplane">
<path id="airplane_2" d="M26.8276 14.6296C26.8182 13.5184 25.3021 12.6426 23.4469 12.6426H19.5766C19.0493 12.6426 18.8515 12.5485 18.5313 12.2001L12.1467 5.2975C11.9395 5.0715 11.6947 4.9585 11.4216 4.9585H10.2068C9.96201 4.9585 9.82076 5.1845 9.93376 5.43876L13.2391 12.6332L8.40823 13.17L6.68495 10.1001C6.55311 9.86468 6.35536 9.76109 6.0446 9.76109H5.62084C5.36659 9.76109 5.19708 9.93059 5.19708 10.1848V19.0744C5.19708 19.3286 5.36659 19.4981 5.62084 19.4981H6.0446C6.35536 19.4981 6.55311 19.3945 6.68495 19.1591L8.40823 16.0798L13.2391 16.626L9.93376 23.8205C9.82076 24.0747 9.96201 24.3007 10.2068 24.3007H11.4216C11.6947 24.3007 11.9395 24.1783 12.1467 23.9617L18.5313 17.0592C18.8515 16.7107 19.0493 16.6166 19.5766 16.6166H23.4469C25.3021 16.6166 26.8182 15.7314 26.8276 14.6296Z" fill="white"/>
</g>
</svg>
